<svg xmlns="http://www.w3.org/2000/svg" xmlns:xlink="http://www.w3.org/1999/xlink" width="1024" height="1024" viewBox="0 0 1024 1024">
  <defs>
    <style>
      .a {
        fill: url(#a);
      }

      .b {
        fill: url(#b);
      }

      .c {
        fill: url(#c);
      }

      .d {
        fill: url(#d);
      }

      .e {
        fill: #e70027;
      }
    </style>
    <linearGradient id="a" data-name="Unbenannter Verlauf 2" x1="580.73718" y1="997.9474" x2="651.69667" y2="595.51615" gradientUnits="userSpaceOnUse">
      <stop offset="0" stop-color="#1e9cd7"/>
      <stop offset="0" stop-color="#0075be"/>
      <stop offset="0.86323" stop-color="#3fa9f5"/>
      <stop offset="1" stop-color="#3ca7f3"/>
      <stop offset="1" stop-color="#005b97"/>
    </linearGradient>
    <linearGradient id="b" x1="267.42002" y1="578.92629" x2="267.42002" y2="392.58823" xlink:href="#a"/>
    <linearGradient id="c" data-name="Unbenannter Verlauf 3" x1="257.4313" y1="668.76785" x2="360.64819" y2="668.76785" gradientUnits="userSpaceOnUse">
      <stop offset="0" stop-color="#005b97"/>
      <stop offset="0.00885" stop-color="#3ca7f3"/>
      <stop offset="0.62182" stop-color="#1587d1"/>
      <stop offset="0.95538" stop-color="#0075be"/>
    </linearGradient>
    <linearGradient id="d" x1="583.72988" y1="578.92629" x2="583.72988" y2="38.21318" xlink:href="#a"/>
  </defs>
  <title>Denrim_hi_centerZeichenfläche 1 Kopie 6</title>
  <g>
    <path class="a" d="M765.19185,615.52841c-194.92053,0-352.93521,157.91425-352.93521,352.71132H765.19185Z"/>
    <path class="b" d="M360.64819,392.58823c-102.97688,0-186.45634,83.42639-186.45634,186.33806H360.64819Z"/>
    <path class="c" d="M257.4313,617.19214A103.1842,103.1842,0,0,0,360.64819,720.34355V617.19214Z"/>
    <path class="d" d="M640.3327,305.17119V153.01073a186.65516,186.65516,0,0,0-51.60845,7.23638V38.21318c-100.18728,0-181.90743,78.97064-186.26206,178.02183-.065,0-.12925-.00244-.19428-.00244V578.92629H765.19185C765.19185,469.6498,716.82844,371.66667,640.3327,305.17119ZM500.49044,470.78367a38.26586,38.26586,0,1,1,38.29014-38.26585A38.27795,38.27795,0,0,1,500.49044,470.78367Z"/>
    <path class="e" d="M401.702,720.90909A104.31564,104.31564,0,0,0,506.05069,616.6266H401.702Z"/>
  </g>
</svg>
